<svg xmlns="http://www.w3.org/2000/svg" viewBox="0 0 166.05 32" width="332.1" height="64"><title>replaymark</title><rect width="32" height="32" rx="6" fill="#161c28"/><circle cx="16" cy="16" r="7" fill="#e5322d"/><path transform="translate(42 26.40)" fill="#e8ecf3" d="M1.12 0V-20.8H5.68Q8.3 -20.8 9.47 -19.72Q10.64 -18.65 10.73 -16.16Q10.76 -15.32 10.77 -14.65Q10.77 -13.99 10.77 -13.33Q10.76 -12.68 10.73 -11.89Q10.68 -10.31 10.19 -9.32Q9.71 -8.32 8.69 -7.81L11.04 0H7.48L5.52 -7.25H4.48V0ZM4.48 -10.21H5.67Q6.51 -10.21 6.92 -10.6Q7.33 -10.99 7.37 -11.72Q7.41 -12.45 7.42 -13.24Q7.44 -14.03 7.42 -14.81Q7.41 -15.6 7.37 -16.33Q7.33 -17.07 6.92 -17.46Q6.51 -17.84 5.68 -17.84H4.48ZM13.33 0V-20.8H21.54V-17.84H16.69V-12.04H21.28V-9.07H16.69V-2.96H21.54V0ZM23.9 0V-20.8H28.45Q31.08 -20.8 32.25 -19.72Q33.42 -18.65 33.5 -16.16Q33.55 -14.9 33.55 -13.86Q33.55 -12.81 33.5 -11.63Q33.42 -9.15 32.25 -8.07Q31.08 -6.99 28.45 -6.99H27.25V0ZM27.25 -9.95H28.45Q29.28 -9.95 29.7 -10.34Q30.11 -10.72 30.15 -11.45Q30.19 -12.19 30.2 -13.04Q30.21 -13.89 30.2 -14.75Q30.19 -15.6 30.15 -16.33Q30.11 -17.07 29.7 -17.46Q29.29 -17.84 28.45 -17.84H27.25ZM35.9 0V-20.8H39.25V-2.96H44.13V0ZM45.49 0 48.21 -20.8H53.61L56.33 0H52.89L52.42 -4.77H49.4L48.93 0ZM49.71 -7.73H52.11L51.65 -12.32L51.27 -17.84H50.55L50.17 -12.31ZM61.23 0V-5.07V-5.09L57.6 -20.8H61.02L62.11 -15.55L62.58 -9.48H63.24L63.7 -15.55L64.79 -20.8H68.22L64.59 -5.09V-5.06V0ZM70.27 0V-20.8H75.76L77.36 -12.77L77.82 -2.98H78.45L78.89 -12.77L80.51 -20.8H85.98V0H82.62V-6.31L83.26 -17.84H82.59L81.42 -6.1L79.98 -0.02H76.26L74.85 -6.1L73.66 -17.84H73.01L73.63 -6.31V0ZM88.09 0 90.81 -20.8H96.21L98.93 0H95.49L95.02 -4.77H92L91.53 0ZM92.31 -7.73H94.71L94.25 -12.32L93.88 -17.84H93.15L92.77 -12.31ZM101.04 0V-20.8H105.6Q108.22 -20.8 109.39 -19.72Q110.56 -18.65 110.64 -16.16Q110.68 -15.32 110.68 -14.65Q110.69 -13.99 110.68 -13.33Q110.68 -12.68 110.64 -11.89Q110.59 -10.31 110.11 -9.32Q109.62 -8.32 108.6 -7.81L110.96 0H107.4L105.44 -7.25H104.4V0ZM104.4 -10.21H105.59Q106.43 -10.21 106.84 -10.6Q107.25 -10.99 107.29 -11.72Q107.33 -12.45 107.34 -13.24Q107.35 -14.03 107.34 -14.81Q107.33 -15.6 107.29 -16.33Q107.25 -17.07 106.84 -17.46Q106.43 -17.84 105.6 -17.84H104.4ZM113.25 0V-20.8H116.82L116.78 -15.79L116.19 -10.97H116.83L118.17 -15.9L119.94 -20.8H123.61L120.24 -12.06L123.81 0H120.4L118.02 -8.3L116.67 -5.27V0Z"/></svg>
